<svg xmlns="http://www.w3.org/2000/svg" xmlns:xlink="http://www.w3.org/1999/xlink" width="182.254" height="141.372" viewBox="0 0 182.254 141.372"><defs><linearGradient id="a" x1="0.5" x2="0.5" y2="1" gradientUnits="objectBoundingBox"><stop offset="0" stop-color="#fff"/><stop offset="1" stop-color="#214778"/></linearGradient></defs><g transform="translate(-306 -462.863)"><g transform="translate(298.254 686.002)"><path d="M131.9-208.256c-4.11,1.2-9.779,6.023-9.779,8.291-.071,1.984-1.2,2.268-3.9.921-7.511-3.827-18.353.283-21.046,7.937l-.709,1.913-2.834-1.488c-7.441-3.9-17.715-.142-21.329,7.724-.709,1.63-1.063,1.346-8.929-6.378-4.535-4.464-9.354-8.716-10.7-9.425-5.315-2.764-13.96-1.2-18.211,3.4C32.126-192.879,30-187.706,30-184.517c0,6.094,1.346,7.724,31.675,38.053,15.873,15.873,28.7,28.983,28.557,29.124-.213.142-8.007,1.488-17.361,2.905-22.038,3.472-25.369,4.96-29.124,12.826-3.331,6.944-1.772,14.243,3.756,18.07l2.622,1.772H140.19l6.023-2.2c8.645-3.047,13.18-6.307,24.518-17.645,14.1-14.031,18.282-21.9,19.2-35.785a46.6,46.6,0,0,0-10.558-31.534c-6.236-7.3-31.675-34.864-33.8-36.706A15.161,15.161,0,0,0,131.9-208.256Zm10.062,10.417c6.732,6.59,32.88,36.14,34.793,39.47,4.606,8.007,6.165,19.274,3.827,27.99-2.055,7.795-4.464,11.267-14.81,21.9-11.125,11.409-14.952,14.172-22.6,16.794l-5.385,1.772H51.967l-1.063-1.7c-2.338-3.614,1.134-10.062,6.236-11.692,1.276-.425,10.7-1.984,21.046-3.614,10.346-1.559,19.983-3.189,21.4-3.614,2.551-.638,4.11-2.338,4.11-4.323,0-.5-14.172-15.094-31.463-32.455s-31.959-32.313-32.6-33.305c-3.331-5.031.5-11.338,6.874-11.338,1.984,0,4.606,2.409,23.88,21.542,20.125,20.054,23.526,23.1,25.439,23.1,1.346,0,3.614-2.764,3.614-4.393,0-.992-3.189-4.748-9.566-11.2-9.425-9.5-10.984-11.834-10.417-15.377.283-2.055,3.189-5.031,5.385-5.6,3.614-.85,5.669.5,15.448,10.133,7.724,7.653,10.062,9.566,11.621,9.566a3.827,3.827,0,0,0,3.827-3.9c0-.779-2.551-4.039-5.669-7.37-5.456-5.74-6.094-6.944-5.74-10.842.213-2.268,3.472-5.527,5.74-5.74,3.9-.354,5.1.283,10.842,5.74,3.331,3.118,6.59,5.669,7.37,5.669a4.113,4.113,0,0,0,2.834-6.944c-4.677-5.173-1.488-12.9,5.315-12.9C138.631-200.461,139.694-199.965,141.962-197.839Z" transform="translate(0 0.001)" fill="url(#a)"/></g><path d="M30.962-226.483a40.421,40.421,0,0,0-19.937,10.46,44.2,44.2,0,0,0-9.2,14.742c-2.738,8.213-1.9,18.954,2.317,27.519,2.668,5.546,9.828,12.917,14.953,15.514,4.774,2.387,6.88,2.176,7.933-.772.842-2.387.14-3.861-2.457-5.335C14.254-169.971,8.5-179.378,8.5-190.47c0-20.428,21.692-34.118,40.225-25.413,5.054,2.317,10.811,7.441,12.777,11.443,2.457,4.844,5.195,6.178,7.652,3.721,2.738-2.668.281-8.284-6.669-15.234C54.2-224.236,41.983-228.308,30.962-226.483Z" transform="translate(305.754 689.776)" fill="url(#a)"/></g></svg>