<svg xmlns="http://www.w3.org/2000/svg" xmlns:xlink="http://www.w3.org/1999/xlink" width="211.839" height="94.92" viewBox="0 0 211.839 94.92"><defs><linearGradient id="a" x1="0.596" y1="0.076" x2="0.533" y2="0.943" gradientUnits="objectBoundingBox"><stop offset="0" stop-color="#f20000"/><stop offset="1" stop-color="#f0b"/></linearGradient></defs><g transform="translate(-155.161 -41)"><path d="M55.846,69.684A24.851,24.851,0,0,1,22.765,57.938L.785,11.756h0A8.07,8.07,0,0,1,4.6,1L5.061.785A8.071,8.071,0,0,1,15.815,4.6l21.435,45.04A8.431,8.431,0,1,0,52.477,42.4l-.842-1.77a8.069,8.069,0,1,1,14.573-6.936L67.593,36.6A24.851,24.851,0,0,1,55.846,69.684Z" transform="translate(185.628 41) rotate(25)" fill="url(#a)"/><path d="M41.632,31.364,22.775,42.185a2.576,2.576,0,0,1-3.825-2.25V17.65a2.578,2.578,0,0,1,3.825-2.25L41.632,26.864A2.58,2.58,0,0,1,41.632,31.364Z" transform="translate(187.05 36.611)" fill="url(#a)"/><text transform="translate(308 104)" fill="#fff" font-size="38" font-family="SegoeUI, Segoe UI"><tspan x="-58.939" y="0">Telefan</tspan></text></g></svg>