<svg xmlns="http://www.w3.org/2000/svg" xmlns:xlink="http://www.w3.org/1999/xlink" width="150" height="150" viewBox="0 0 150 150"><defs><linearGradient id="a" x1="0.802" y1="0.127" x2="0.181" y2="0.891" gradientUnits="objectBoundingBox"><stop offset="0" stop-color="red"/><stop offset="1" stop-color="#2cf6ef"/></linearGradient></defs><g transform="translate(-1108.5 -465.68)"><path d="M-3192,485a74.529,74.529,0,0,1-29.193-5.894,74.75,74.75,0,0,1-23.839-16.073,74.755,74.755,0,0,1-16.073-23.84A74.528,74.528,0,0,1-3267,410a74.53,74.53,0,0,1,5.894-29.194,74.751,74.751,0,0,1,16.073-23.84,74.749,74.749,0,0,1,23.839-16.073A74.529,74.529,0,0,1-3192,335a74.531,74.531,0,0,1,29.194,5.894,74.751,74.751,0,0,1,23.84,16.073,74.754,74.754,0,0,1,16.073,23.84A74.53,74.53,0,0,1-3117,410a74.528,74.528,0,0,1-5.894,29.193,74.752,74.752,0,0,1-16.073,23.84,74.751,74.751,0,0,1-23.84,16.073A74.532,74.532,0,0,1-3192,485Zm0-141a66.075,66.075,0,0,0-66,66,66.074,66.074,0,0,0,66,66,66.075,66.075,0,0,0,66-66A66.075,66.075,0,0,0-3192,344Z" transform="translate(4375.5 130.68)" fill="url(#a)"/><path d="M-3263,392.133a4.066,4.066,0,0,1-2.786-1.128,3.949,3.949,0,0,1-1.219-2.878V341.873a3.948,3.948,0,0,1,1.219-2.877,4.067,4.067,0,0,1,2.787-1.128,3.946,3.946,0,0,1,1.97.528l40.7,23.126A3.956,3.956,0,0,1-3218.3,365a3.956,3.956,0,0,1-2.024,3.478l-40.7,23.126A3.947,3.947,0,0,1-3263,392.133Zm5.8-44.265a4.01,4.01,0,0,0-4.006,4.005v26.254a4.009,4.009,0,0,0,4,4,3.946,3.946,0,0,0,1.972-.527l23.1-13.127A3.956,3.956,0,0,0-3230.1,365a3.956,3.956,0,0,0-2.024-3.478l-23.1-13.126A3.946,3.946,0,0,0-3257.194,347.868Z" transform="translate(4433 175.68)" fill="url(#a)"/></g></svg>