<svg xmlns="http://www.w3.org/2000/svg" xmlns:xlink="http://www.w3.org/1999/xlink" width="150" height="150" viewBox="0 0 150 150"><defs><linearGradient id="a" x1="0.621" y1="-0.806" x2="-0.215" y2="1.874" gradientUnits="objectBoundingBox"><stop offset="0" stop-color="#efff06"/><stop offset="1" stop-color="#cb21e6"/></linearGradient></defs><g transform="translate(-1444.5 -465.68)"><path d="M77.918,64.919a41.716,41.716,0,0,1-64.117,0c-3.77-4.552,3.072-10.249,6.87-5.725a32.812,32.812,0,0,0,50.378,0C74.847,54.67,81.688,60.395,77.918,64.919Z" transform="translate(1473.627 497.543)" fill="url(#a)"/><path d="M-3192,485a74.529,74.529,0,0,1-29.193-5.894,74.75,74.75,0,0,1-23.839-16.073,74.755,74.755,0,0,1-16.073-23.84A74.528,74.528,0,0,1-3267,410a74.53,74.53,0,0,1,5.894-29.194,74.751,74.751,0,0,1,16.073-23.84,74.749,74.749,0,0,1,23.839-16.073A74.529,74.529,0,0,1-3192,335a74.531,74.531,0,0,1,29.194,5.894,74.751,74.751,0,0,1,23.84,16.073,74.754,74.754,0,0,1,16.073,23.84A74.53,74.53,0,0,1-3117,410a74.528,74.528,0,0,1-5.894,29.193,74.752,74.752,0,0,1-16.073,23.84,74.751,74.751,0,0,1-23.84,16.073A74.532,74.532,0,0,1-3192,485Zm0-141a66.075,66.075,0,0,0-66,66,66.074,66.074,0,0,0,66,66,66.075,66.075,0,0,0,66-66A66.075,66.075,0,0,0-3192,344Z" transform="translate(4711.5 130.68)" fill="url(#a)"/><circle cx="9" cy="9" r="9" transform="translate(1489 511)" fill="url(#a)"/><circle cx="9" cy="9" r="9" transform="translate(1531 511)" fill="url(#a)"/></g></svg>