<svg xmlns="http://www.w3.org/2000/svg" width="28" height="32.229" viewBox="0 0 28 32.229"><path d="M17.074.027C18.833,0,20.579.013,22.325,0a8.364,8.364,0,0,0,2.35,5.6A9.47,9.47,0,0,0,30.369,8v5.412a14.374,14.374,0,0,1-5.64-1.3,16.591,16.591,0,0,1-2.175-1.249c-.013,3.921.013,7.842-.027,11.75A10.257,10.257,0,0,1,20.713,27.9a10,10,0,0,1-7.936,4.311A9.792,9.792,0,0,1,7.3,30.832a10.127,10.127,0,0,1-4.9-7.668c-.027-.671-.04-1.343-.013-2a10.109,10.109,0,0,1,11.723-8.97c.027,1.987-.054,3.975-.054,5.962A4.608,4.608,0,0,0,8.171,21a5.327,5.327,0,0,0-.188,2.162,4.57,4.57,0,0,0,4.7,3.854,4.512,4.512,0,0,0,3.72-2.162,3.1,3.1,0,0,0,.551-1.423c.134-2.4.081-4.794.094-7.2.013-5.412-.013-10.81.027-16.208Z" transform="translate(-2.369)" fill="#fff" opacity="0.9"/></svg>