<svg xmlns="http://www.w3.org/2000/svg" width="34" height="27.614" viewBox="0 0 34 27.614"><path d="M30.505,10.263c.022.3.022.6.022.906C30.527,20.381,23.515,31,10.7,31A19.692,19.692,0,0,1,0,27.867a14.415,14.415,0,0,0,1.683.086,13.955,13.955,0,0,0,8.651-2.977,6.981,6.981,0,0,1-6.515-4.833,8.788,8.788,0,0,0,1.316.108,7.37,7.37,0,0,0,1.834-.237,6.969,6.969,0,0,1-5.588-6.839v-.086a7.018,7.018,0,0,0,3.15.884,6.979,6.979,0,0,1-2.157-9.32,19.807,19.807,0,0,0,14.368,7.292,7.866,7.866,0,0,1-.173-1.6,6.975,6.975,0,0,1,12.06-4.768A13.719,13.719,0,0,0,33.051,3.9a6.949,6.949,0,0,1-3.063,3.84A13.969,13.969,0,0,0,34,6.66a14.979,14.979,0,0,1-3.495,3.6Z" transform="translate(0 -3.381)" fill="#fff" opacity="0.9"/></svg>